<svg xmlns="http://www.w3.org/2000/svg" version="1.0" width="500.000000pt" height="500.000000pt" viewBox="0 0 500.000000 500.000000" preserveAspectRatio="xMidYMid meet">

<g transform="translate(0.000000,500.000000) scale(0.100000,-0.100000)" fill="#ffffff" stroke="none">
<path d="M2075 3256 c-83 -26 -143 -60 -205 -115 l-45 -40 420 0 420 0 -49 43 c-103 93 -224 136 -376 136 -71 -1 -113 -7 -165 -24z" fill="#ffffff"/>
<path d="M1726 2938 c-63 -151 -62 -309 5 -455 21 -48 33 -63 49 -63 19 0 211 125 689 449 l194 131 -455 0 -456 0 -26 -62z" fill="#ffffff"/>
<path d="M2385 2695 c-209 -141 -384 -260 -389 -265 -7 -7 126 -10 362 -10 l372 0 24 48 c43 85 59 166 53 277 -3 60 -12 121 -24 153 l-18 52 -380 -255z" fill="#ffffff"/>
<path d="M2733 2412 c-54 -93 -60 -108 -45 -116 9 -5 93 -54 186 -108 93 -54 171 -96 174 -93 19 18 119 201 114 207 -4 3 -74 45 -157 93 -82 48 -164 95 -181 106 l-30 18 -61 -107z" fill="#ffffff"/>
<path d="M1880 2288 c107 -97 294 -152 446 -129 113 17 242 78 303 145 l24 26 -409 0 -409 -1 45 -41z" fill="#ffffff"/>
</g>
</svg>