<?xml version="1.0" standalone="no"?>
<!DOCTYPE svg PUBLIC "-//W3C//DTD SVG 20010904//EN"
 "http://www.w3.org/TR/2001/REC-SVG-20010904/DTD/svg10.dtd">
<svg version="1.0" xmlns="http://www.w3.org/2000/svg"
 width="500.000000pt" height="500.000000pt" viewBox="0 0 500.000000 500.000000"
 preserveAspectRatio="xMidYMid meet">

<g transform="translate(0.000000,500.000000) scale(0.100000,-0.100000)"
fill="#000000" stroke="none">
<path d="M1782 3644 c-33 -23 -52 -67 -52 -122 0 -80 10 -110 54 -158 72 -78
151 -68 163 22 5 36 2 43 -27 68 -26 21 -35 24 -41 14 -6 -9 2 -21 21 -36 48
-37 36 -92 -19 -92 -64 0 -123 73 -136 170 -8 59 18 111 60 122 93 24 195 -74
195 -189 0 -65 -27 -106 -90 -138 -27 -14 -50 -30 -50 -35 0 -13 6 -13 40 5
15 8 75 21 132 28 144 19 197 53 168 108 -10 17 -9 23 1 30 11 7 10 9 -3 9
-13 0 -20 15 -29 60 -6 33 -15 60 -19 60 -4 0 -15 -18 -23 -39 -22 -54 -37
-61 -37 -17 0 19 -4 37 -9 40 -12 8 -41 -4 -41 -16 0 -5 4 -7 9 -3 6 3 13 -15
16 -40 9 -53 25 -58 53 -13 l20 32 7 -38 c6 -31 4 -40 -14 -52 -11 -8 -21 -23
-21 -32 1 -16 1 -16 11 1 14 24 46 21 60 -5 16 -30 -7 -45 -80 -53 -31 -3 -73
-9 -95 -12 l-38 -5 26 44 c33 58 35 133 5 196 -40 83 -156 129 -217 86z"/>
<path d="M2220 3639 c-13 -8 -13 -10 0 -19 32 -21 55 -5 27 18 -8 7 -18 7 -27
1z"/>
<path d="M2305 3575 l-20 -17 20 8 c25 10 75 10 99 1 16 -6 16 -10 5 -23 -23
-28 -87 -64 -114 -64 -14 0 -25 -4 -25 -10 0 -5 -4 -10 -10 -10 -5 0 -10 25
-10 55 0 48 -3 55 -19 55 -11 0 -23 -4 -26 -10 -3 -5 -1 -10 4 -10 6 0 11 -21
11 -49 0 -51 14 -67 41 -50 23 15 35 11 85 -31 50 -41 92 -51 124 -30 11 7 7
8 -15 4 -26 -5 -38 1 -78 36 l-47 41 62 42 c62 42 80 63 56 65 -7 0 -38 4 -68
7 -43 5 -59 3 -75 -10z"/>
<path d="M2624 3524 c3 -9 6 -18 6 -20 0 -2 7 -4 16 -4 11 0 14 5 10 16 -3 9
-6 18 -6 20 0 2 -7 4 -16 4 -11 0 -14 -5 -10 -16z"/>
<path d="M2729 3512 c20 -14 5 -31 -22 -24 -19 5 -20 4 -8 -11 12 -15 7 -24
-38 -73 -39 -43 -51 -63 -49 -83 2 -14 10 -27 19 -29 12 -2 15 3 12 21 -3 17
8 38 43 79 42 51 51 56 78 52 26 -5 28 -4 13 6 -12 8 -17 21 -15 38 2 22 -1
28 -22 30 -18 2 -21 0 -11 -6z"/>
<path d="M2578 3467 c8 -10 5 -23 -13 -52 -17 -29 -21 -43 -13 -52 15 -18 39
-16 32 2 -3 8 4 30 16 50 25 40 21 65 -11 65 -16 0 -19 -3 -11 -13z"/>
<path d="M2119 3269 c-68 -16 -144 -51 -204 -94 -114 -81 -140 -75 331 -75
l419 1 -50 45 c-58 52 -166 107 -243 123 -61 13 -200 13 -253 0z"/>
<path d="M1726 2938 c-63 -151 -62 -309 5 -455 21 -48 33 -63 48 -63 19 0 395
246 765 499 l119 81 -455 0 -456 0 -26 -62z"/>
<path d="M2366 2684 l-390 -264 377 0 377 0 24 48 c46 91 59 156 53 271 -4 96
-30 213 -46 210 -3 -1 -181 -120 -395 -265z"/>
<path d="M2733 2412 l-61 -106 161 -94 c89 -51 174 -100 188 -108 l27 -13 60
104 60 104 -106 62 c-59 34 -143 83 -188 109 l-80 47 -61 -105z"/>
<path d="M1885 2284 c135 -122 349 -164 536 -105 63 20 151 71 214 125 l30 25
-415 0 -415 0 50 -45z"/>
<path d="M2588 2045 c-15 -8 -73 -20 -129 -27 -72 -8 -111 -18 -133 -33 -33
-22 -45 -57 -26 -80 8 -10 8 -15 -1 -20 -8 -6 -7 -10 4 -16 10 -6 18 -30 22
-64 4 -30 11 -55 15 -55 4 0 15 18 23 39 22 55 34 58 42 11 7 -43 15 -49 35
-25 7 9 8 15 2 15 -6 0 -13 18 -17 40 -8 48 -17 50 -47 10 l-22 -31 -11 38
c-10 34 -9 39 10 48 11 6 21 19 23 30 2 18 2 19 -8 3 -14 -22 -34 -23 -54 -2
-22 22 -20 31 12 47 28 15 192 33 192 22 0 -3 -9 -19 -21 -34 -26 -36 -35
-103 -20 -159 33 -122 191 -185 254 -101 59 80 27 239 -57 290 -64 39 -113 19
-131 -53 -10 -41 37 -100 66 -82 5 3 -4 18 -21 34 -54 51 -31 108 39 94 41 -8
97 -72 111 -126 36 -130 -35 -209 -140 -156 -64 33 -103 92 -108 165 -5 74 22
118 91 151 26 12 47 27 47 32 0 13 -10 12 -42 -5z"/>
<path d="M1857 2012 c3 -12 -14 -40 -48 -80 -45 -53 -56 -61 -78 -56 -22 5
-24 4 -8 -6 12 -8 16 -18 11 -32 -4 -13 -1 -24 7 -29 22 -14 33 -10 19 6 -13
16 -8 19 25 15 16 -2 17 0 6 14 -12 14 -8 23 31 64 60 64 73 89 57 108 -16 20
-28 18 -22 -4z"/>
<path d="M1902 1922 c-26 -55 -28 -72 -7 -72 8 0 15 7 15 16 0 9 9 29 21 45
19 27 20 60 2 59 -4 -1 -18 -22 -31 -48z"/>
<path d="M2020 1930 c-9 -6 -10 -10 -3 -10 6 0 15 5 18 10 8 12 4 12 -15 0z"/>
<path d="M2107 1899 c49 -43 62 -59 45 -59 -5 0 -35 -19 -68 -42 l-58 -42 34
-9 c69 -17 98 -19 120 -7 12 6 19 14 17 17 -3 2 -15 0 -26 -7 -22 -11 -101 3
-101 18 0 13 99 75 124 77 14 2 30 6 35 10 7 4 11 -11 11 -45 0 -53 19 -75 43
-51 8 8 8 11 -1 11 -8 0 -12 18 -12 49 0 51 -13 72 -33 52 -19 -19 -41 -12
-91 29 -67 56 -104 55 -39 -1z"/>
<path d="M1837 1811 c3 -12 12 -21 20 -21 20 0 12 34 -9 38 -12 2 -15 -2 -11
-17z"/>
<path d="M2239 1696 c16 -19 44 -21 39 -3 -3 6 -15 14 -28 15 -21 3 -22 2 -11
-12z"/>
</g>
</svg>
